<?xml version="1.0" encoding="UTF-8"?><svg xmlns="http://www.w3.org/2000/svg" xmlns:xlink="http://www.w3.org/1999/xlink" viewBox="0 0 24 24" version="1.1"><path d="M8 3a5 5 0 0 0-5 5v8a5 5 0 0 0 5 5h8a5 5 0 0 0 5-5V8a5 5 0 0 0-5-5zm10 2c.55 0 1 .45 1 1s-.45 1-1 1-1-.45-1-1 .45-1 1-1zm-6 2a5 5 0 1 1 0 10 5 5 0 0 1 0-10zm0 2a3 3 0 1 0 .002 6.002A3 3 0 0 0 12 9z" id="surface1"/><metadata><rdf:RDF xmlns:rdf="http://www.w3.org/1999/02/22-rdf-syntax-ns#" xmlns:rdfs="http://www.w3.org/2000/01/rdf-schema#" xmlns:dc="http://purl.org/dc/elements/1.1/"><rdf:Description about="https://iconscout.com/legal#licenses" dc:title="instagram" dc:description="instagram" dc:publisher="Iconscout" dc:date="2018-06-22" dc:format="image/svg+xml" dc:language="en"><dc:creator><rdf:Bag><rdf:li>Icons8</rdf:li></rdf:Bag></dc:creator></rdf:Description></rdf:RDF></metadata></svg>