<?xml version="1.0" encoding="UTF-8"?><!DOCTYPE svg PUBLIC "-//W3C//DTD SVG 1.1//EN" "http://www.w3.org/Graphics/SVG/1.1/DTD/svg11.dtd"><svg xmlns="http://www.w3.org/2000/svg" xmlns:xlink="http://www.w3.org/1999/xlink" version="1.1" x="0px" y="0px" width="512px" height="512px" viewBox="0 0 512 512" xml:space="preserve"><path d="M434.478 16H77.519C43.718 16 16 43.719 16 77.521v356.957C16 468.282 43.718 496 77.519 496h356.959C468.281 496 496 468.282 496 434.479V77.521C496 43.719 468.281 16 434.478 16zM383.41 191.673a208.1 208.1 0 0 1 .167 8.385c0 12.851-1.517 25.989-4.462 39.035-16.657 73.858-79.8 145.029-182.544 145.029-37.094 0-71.649-10.701-100.767-29.07a133.6 133.6 0 0 0 15.707.914c30.789 0 59.12-10.327 81.621-27.71-28.762-.505-53.016-19.215-61.391-44.915 4.022.754 8.132 1.183 12.354 1.183 6.032 0 11.808-.81 17.347-2.282-22.142-4.414-40.068-19.729-48.088-40.025-2.884-7.262-4.355-15.155-4.355-23.444v-.815c9 4.855 18.869 7.766 29.625 8.107-17.619-11.608-29.309-31.42-29.309-53.848 0-11.854 3.22-22.971 8.857-32.535 32.408 39.143 80.815 64.911 135.437 67.618a65.645 65.645 0 0 1-1.688-14.746c0-35.729 29.414-64.699 65.717-64.699 18.913 0 35.985 7.841 47.944 20.421a132.144 132.144 0 0 0 41.759-15.722c-4.93 15.13-15.322 27.809-28.904 35.811 13.306-1.563 25.957-5.031 37.739-10.166-8.784 12.964-19.947 24.361-32.766 33.474z" fill-rule="evenodd" clip-rule="evenodd" fill="#1A1A1A" id="twitter__x2C__social__x2C__media_x2C__icons_x2C_"/><metadata><rdf:RDF xmlns:rdf="http://www.w3.org/1999/02/22-rdf-syntax-ns#" xmlns:rdfs="http://www.w3.org/2000/01/rdf-schema#" xmlns:dc="http://purl.org/dc/elements/1.1/"><rdf:Description about="https://iconscout.com/legal#licenses" dc:title="twitter,social,media,s" dc:description="twitter,social,media,s" dc:publisher="Iconscout" dc:date="2018-06-25" dc:format="image/svg+xml" dc:language="en"><dc:creator><rdf:Bag><rdf:li>Ibrandify Icons</rdf:li></rdf:Bag></dc:creator></rdf:Description></rdf:RDF></metadata></svg>